<svg xmlns="http://www.w3.org/2000/svg" viewBox="0 0 68.94 69.04"><defs><style>.cls-1{fill:#ee5234;}</style></defs><g id="Layer_2" data-name="Layer 2"><g id="logo"><path class="cls-1" d="M61.33,3.06V0h-11V3"/><path class="cls-1" d="M38.31,42.69h-11v-24a1.84,1.84,0,0,0-1.55-2.16,1.84,1.84,0,0,0-1.61,2.16l-.21,24H14.07c-.16,0,0-24,0-24a1.87,1.87,0,0,0-1.67-2.16,1.85,1.85,0,0,0-1.51,2.16q.12,12,.26,24H0V13.12a11.11,11.11,0,0,1,10.34-7.4c5.48.06,8.6,4.58,8.87,5,.24-.38,3.37-5,8.89-5a11,11,0,0,1,10.21,7.41Z"/><path class="cls-1" d="M42.75,42.69H53.52v-24a2.23,2.23,0,0,1,4.45,0v24h11V16.09a13.4,13.4,0,0,0-26.19,0Z"/><path class="cls-1" d="M53.51,31.86H42.74v24a2.23,2.23,0,0,1-4.44,0v-24h-11V58.47a13.4,13.4,0,0,0,26.19,0Z"/></g></g></svg>