<svg xmlns="http://www.w3.org/2000/svg" xmlns:xlink="http://www.w3.org/1999/xlink" viewBox="0 0 1437 188.85"><defs><style>.cls-1{fill:none;}.cls-2{fill:#ee5234;}.cls-3{fill:url(#_2222222);}</style><pattern id="_2222222" data-name="2222222" width="287" height="432" patternTransform="translate(201.81 -228.17)" patternUnits="userSpaceOnUse" viewBox="0 0 287 432"><rect class="cls-1" width="287" height="432"/><path class="cls-2" d="M235.65,382.46l-1.54-4.21L219,383.79l1.53,4.15"/><path class="cls-2" d="M224,448.63l-15.1,5.55-12.13-33a2.43,2.43,0,1,0-4.35,1.6q5.93,16.56,11.84,33.13s-13.41,4.9-13.62,5-12.12-33-12.12-33a2.44,2.44,0,1,0-4.38,1.6q6.24,16.46,12.49,32.89L171.28,468l-14.94-40.7a16.26,16.26,0,0,1,10.48-15.41c7.57-2.68,14.15,2,14.72,2.39.15-.64,2.14-8.55,9.71-11.38a16.13,16.13,0,0,1,17.8,5.05Z"/><path class="cls-2" d="M230.11,446.38,244.92,441l-12.14-33.08a3.27,3.27,0,0,1,6.12-2.24L251,438.7l15.1-5.55-13.44-36.6a19.63,19.63,0,0,0-36,13.23Z"/><path class="cls-2" d="M239.44,426.05l-14.82,5.44,12.15,33.07a3.27,3.27,0,0,1-6.12,2.25l-12.14-33.08-15.1,5.55,13.44,36.61a19.63,19.63,0,0,0,36-13.23Z"/><path class="cls-2" d="M100.17,324.23,98.63,320l-15.1,5.55,1.52,4.14"/><path class="cls-2" d="M88.51,390.4,73.41,396l-12.13-33a2.67,2.67,0,0,0-3.22-2.18,2.68,2.68,0,0,0-1.12,3.77q5.91,16.58,11.83,33.13s-13.41,4.9-13.62,5-12.12-33-12.12-33a2.71,2.71,0,0,0-3.38-2.12,2.7,2.7,0,0,0-1,3.72l12.48,32.9L35.8,409.76,20.86,369.07a16.28,16.28,0,0,1,10.49-15.42c7.56-2.68,14.14,2,14.72,2.39.14-.64,2.13-8.54,9.7-11.37a16.11,16.11,0,0,1,17.8,5Z"/><path class="cls-2" d="M94.63,388.16l14.82-5.44L97.3,349.65a3.27,3.27,0,0,1,6.12-2.25l12.14,33.07,15.1-5.54-13.44-36.61a19.63,19.63,0,0,0-36,13.23Z"/><path class="cls-2" d="M104,367.82l-14.81,5.44,12.14,33.07a3.27,3.27,0,0,1-6.12,2.25L83,375.51l-15.1,5.54,13.44,36.61a19.63,19.63,0,0,0,36-13.23Z"/><path class="cls-2" d="M92.15,166.46l-1.54-4.21L75.5,167.79,77,171.94"/><path class="cls-2" d="M80.49,232.63l-15.1,5.55-12.13-33A2.69,2.69,0,0,0,50,203a2.7,2.7,0,0,0-1.13,3.78q5.93,16.56,11.84,33.13s-13.41,4.9-13.62,5-12.12-33-12.12-33a2.72,2.72,0,0,0-3.39-2.12,2.71,2.71,0,0,0-1,3.72q6.24,16.46,12.49,32.89L27.78,252l-14.94-40.7a16.26,16.26,0,0,1,10.48-15.41c7.57-2.68,14.15,2,14.72,2.39.15-.64,2.14-8.55,9.71-11.38a16.13,16.13,0,0,1,17.8,5.05Z"/><path class="cls-2" d="M86.61,230.38,101.42,225,89.28,191.87a3.27,3.27,0,0,1,6.12-2.24l12.14,33.07,15.1-5.55-13.44-36.6a19.63,19.63,0,0,0-36,13.23Z"/><path class="cls-2" d="M95.94,210.05l-14.82,5.44,12.15,33.07a3.27,3.27,0,0,1-6.12,2.25L75,217.73l-15.1,5.55,13.44,36.61a19.63,19.63,0,0,0,36-13.23Z"/><path class="cls-2" d="M207.78,225.42l-1.54-4.21-15.1,5.55,1.52,4.14"/><path class="cls-2" d="M196.12,291.6,181,297.14l-12.13-33a2.43,2.43,0,1,0-4.35,1.6q5.93,16.56,11.84,33.12s-13.41,4.9-13.62,5-12.12-33-12.12-33a2.44,2.44,0,1,0-4.38,1.61q6.26,16.44,12.49,32.89L143.41,311l-14.94-40.69A16.3,16.3,0,0,1,139,254.84c7.57-2.68,14.15,2,14.72,2.39.15-.64,2.14-8.54,9.71-11.37a16.14,16.14,0,0,1,17.8,5Z"/><path class="cls-2" d="M202.24,289.35l14.81-5.44-12.14-33.07a3.27,3.27,0,0,1,6.12-2.25l12.14,33.07,15.1-5.54-13.44-36.61a19.63,19.63,0,0,0-36,13.23Z"/><path class="cls-2" d="M211.57,269l-14.81,5.44,12.14,33.07a3.27,3.27,0,0,1-6.12,2.25L190.64,276.7l-15.1,5.54L189,318.85a19.63,19.63,0,0,0,36-13.23Z"/><path class="cls-2" d="M243.67,108.23,242.13,104,227,109.57l1.52,4.14"/><path class="cls-2" d="M232,174.4,216.91,180l-12.13-33a2.42,2.42,0,1,0-4.34,1.59q5.91,16.57,11.83,33.13s-13.41,4.9-13.62,5-12.12-33-12.12-33a2.44,2.44,0,1,0-4.37,1.6l12.48,32.9-15.34,5.63-14.94-40.69a16.28,16.28,0,0,1,10.49-15.42c7.56-2.68,14.14,2,14.72,2.39.14-.64,2.13-8.54,9.7-11.37a16.11,16.11,0,0,1,17.8,5Z"/><path class="cls-2" d="M238.13,172.16,253,166.72,240.8,133.65a3.27,3.27,0,0,1,6.12-2.25l12.14,33.07,15.1-5.54-13.44-36.61a19.63,19.63,0,0,0-36,13.23Z"/><path class="cls-2" d="M247.46,151.82l-14.81,5.44,12.14,33.07a3.27,3.27,0,0,1-6.12,2.25l-12.14-33.07-15.1,5.54,13.44,36.61a19.63,19.63,0,0,0,36-13.23Z"/><path class="cls-2" d="M224,16.63l-15.1,5.55-12.13-33A2.69,2.69,0,0,0,193.54-13a2.7,2.7,0,0,0-1.13,3.78q5.93,16.56,11.84,33.13s-13.41,4.9-13.62,5-12.12-33-12.12-33a2.72,2.72,0,0,0-3.39-2.12,2.71,2.71,0,0,0-1,3.72q6.24,16.45,12.49,32.89L171.28,36,156.34-4.71a16.26,16.26,0,0,1,10.48-15.41c7.57-2.68,14.15,2,14.72,2.39.15-.64,2.14-8.55,9.71-11.38a16.13,16.13,0,0,1,17.8,5.05Z"/><path class="cls-2" d="M230.11,14.38,244.92,9,232.78-24.13a3.34,3.34,0,0,1,1.83-3.9,3.35,3.35,0,0,1,4.29,1.66L251,6.7l15.1-5.55L252.7-35.45a19.69,19.69,0,0,0-23.4-7.92,19.7,19.7,0,0,0-12.63,21.15Z"/><path class="cls-2" d="M239.44-5.95,224.62-.51l12.15,33.07a3.27,3.27,0,0,1-6.12,2.25L218.51,1.73l-15.1,5.55,13.44,36.61a19.63,19.63,0,0,0,36-13.23Z"/><path class="cls-2" d="M339.62,75.6l-15.1,5.54-12.13-33a2.43,2.43,0,1,0-4.35,1.6Q314,66.28,319.88,82.84s-13.41,4.9-13.62,5-12.12-33-12.12-33a2.44,2.44,0,1,0-4.38,1.61Q296,72.87,302.25,89.32L286.91,95,272,54.26a16.3,16.3,0,0,1,10.48-15.42c7.57-2.68,14.15,2,14.72,2.39.15-.64,2.14-8.54,9.71-11.37a16.14,16.14,0,0,1,17.8,5Z"/><path class="cls-2" d="M64.28,9.42,62.74,5.21l-15.1,5.55,1.52,4.14"/><path class="cls-2" d="M52.62,75.6l-15.1,5.54-12.13-33a2.68,2.68,0,0,0-3.22-2.18A2.7,2.7,0,0,0,21,49.72Q27,66.28,32.88,82.84s-13.41,4.9-13.62,5-12.12-33-12.12-33A2.72,2.72,0,0,0,3.76,52.7a2.72,2.72,0,0,0-1,3.73Q9,72.87,15.25,89.32L-.09,95-15,54.26A16.3,16.3,0,0,1-4.55,38.84c7.57-2.68,14.15,2,14.72,2.39.15-.64,2.14-8.54,9.71-11.37a16.14,16.14,0,0,1,17.8,5Z"/><path class="cls-2" d="M58.74,73.35l14.81-5.44L61.41,34.84a3.27,3.27,0,0,1,6.12-2.25L79.67,65.66l15.1-5.54L81.33,23.51a19.63,19.63,0,0,0-36,13.23Z"/><path class="cls-2" d="M68.07,53,53.26,58.45,65.4,91.52a3.27,3.27,0,0,1-6.12,2.25L47.14,60.7,32,66.24l13.44,36.61a19.63,19.63,0,0,0,36-13.23Z"/></pattern></defs><g id="Layer_2" data-name="Layer 2"><g id="Layer_1-2" data-name="Layer 1"><rect class="cls-3" width="1437" height="188.85"/></g></g></svg>