<svg xmlns="http://www.w3.org/2000/svg" viewBox="0 0 60.42 51"><defs><style>.cls-1{fill:#ee5234;}</style></defs><g id="Layer_2" data-name="Layer 2"><g id="Layer_1-2" data-name="Layer 1"><g id="Layer_2-2" data-name="Layer 2"><g id="logo"><path class="cls-1" d="M53.73,2.26V0H44.09V2.22"/><path class="cls-1" d="M33.56,31.54H23.92V13.81a1.39,1.39,0,0,0-1.28-1.59h-.07a1.44,1.44,0,0,0-1.43,1.5.36.36,0,0,0,0,.1L21,31.54H12.33c-.14,0,0-17.73,0-17.73A1.45,1.45,0,0,0,11,12.22h-.11a1.41,1.41,0,0,0-1.32,1.58v0q.11,8.86.23,17.73H0V9.69C1.36,6.45,5,4.27,9.06,4.23a10.37,10.37,0,0,1,7.77,3.69,10.23,10.23,0,0,1,7.79-3.69c4.05,0,7.62,2.24,8.94,5.47Z"/><path class="cls-1" d="M37.45,31.54h9.44V13.81A1.87,1.87,0,0,1,49,12.27a1.83,1.83,0,0,1,1.81,1.54V31.54h9.64V11.89c-1.38-5.35-7.63-8.74-14-7.58-4.5.83-8,3.79-9,7.58Z"/><path class="cls-1" d="M46.88,23.54H37.44V41.27a1.88,1.88,0,0,1-2.13,1.48,1.82,1.82,0,0,1-1.76-1.48V23.54H23.92V43.2c1.37,5.34,7.62,8.73,14,7.57,4.49-.82,8-3.78,9-7.57Z"/></g></g></g></g></svg>