<svg xmlns="http://www.w3.org/2000/svg" xmlns:xlink="http://www.w3.org/1999/xlink" viewBox="0 0 880.65 424.47"><defs><style>.cls-1{fill:none;}.cls-2{fill:#ee5234;}.cls-3{fill:url(#bueno_naranja);}</style><pattern id="bueno_naranja" data-name="bueno naranja" width="737.01" height="1099.84" patternTransform="translate(735.41 476.25) scale(0.22)" patternUnits="userSpaceOnUse" viewBox="0 0 737.01 1099.84"><rect class="cls-1" width="737.01" height="1099.84"/><path class="cls-2" d="M598,965.71l-4.18-11.4-40.89,15L557,980.54"/><path class="cls-2" d="M566.4,1144.87l-40.89,15-32.82-89.41c-1-4.67-5.6-7-8.73-5.9s-5.33,5.92-3,10.22q16,44.85,32.05,89.69s-36.32,13.27-36.87,13.54-32.83-89.41-32.83-89.41c-1.16-4.83-6-7-9.16-5.74s-4.87,5.91-2.68,10.09q16.89,44.54,33.8,89l-41.54,15.25L383.23,1087.1c.11-19.07,11.63-35.8,28.4-41.74,20.49-7.25,38.29,5.33,39.85,6.47.41-1.73,5.78-23.13,26.28-30.79,16.56-6.18,36-.79,48.19,13.66Z"/><path class="cls-2" d="M583,1138.79l40.12-14.73-32.88-89.54a8.84,8.84,0,0,1,16.56-6.08L639.65,1118l40.89-15-36.4-99.12a53.16,53.16,0,0,0-97.56,35.82Z"/><path class="cls-2" d="M608.24,1083.73l-40.12,14.73L601,1188a8.84,8.84,0,0,1-16.56,6.08l-32.88-89.54-40.89,15,36.4,99.12a53.16,53.16,0,0,0,97.56-35.82Z"/><path class="cls-2" d="M271.22,808.06,267,796.66l-40.89,15,4.12,11.22"/><path class="cls-2" d="M239.64,987.22l-40.89,15-32.82-89.41c-1-4.66-5.6-7-8.73-5.9s-5.33,5.93-3,10.23q16,44.85,32,89.69s-36.32,13.26-36.87,13.54S116.5,931,116.5,931c-1.16-4.83-6-7-9.16-5.74s-4.87,5.9-2.68,10.09q16.91,44.52,33.8,89l-41.54,15.25L56.47,929.45c.11-19.07,11.63-35.8,28.4-41.74,20.49-7.26,38.3,5.33,39.85,6.47.41-1.73,5.78-23.14,26.29-30.79,16.56-6.19,36-.8,48.18,13.65Z"/><path class="cls-2" d="M256.21,981.14l40.12-14.73-32.88-89.54A8.84,8.84,0,0,1,280,870.79l32.88,89.54,40.89-15L317.39,846.2A53.16,53.16,0,0,0,219.82,882Z"/><path class="cls-2" d="M281.48,926.08l-40.11,14.73,32.87,89.54a8.84,8.84,0,0,1-16.56,6.08L224.8,946.89l-40.88,15L220.31,1061a53.15,53.15,0,0,0,97.56-35.82Z"/><path class="cls-2" d="M229.48,415.79l-4.19-11.4-40.89,15,4.12,11.22"/><path class="cls-2" d="M197.9,595,157,610l-32.83-89.41c-1-4.66-5.6-7-8.72-5.9s-5.33,5.93-3,10.23q16,44.85,32.05,89.69s-36.32,13.26-36.88,13.54S74.75,538.7,74.75,538.7c-1.15-4.83-6-7-9.15-5.74s-4.87,5.9-2.69,10.09q16.91,44.52,33.8,89.05L55.18,647.35,14.72,537.18c.11-19.07,11.64-35.8,28.4-41.74,20.49-7.26,38.3,5.33,39.86,6.47.4-1.73,5.77-23.14,26.28-30.79,16.56-6.19,36-.8,48.18,13.66Z"/><path class="cls-2" d="M214.47,588.87l40.11-14.73L221.71,484.6a8.84,8.84,0,0,1,16.56-6.08l32.87,89.54,40.89-15-36.39-99.12a53.16,53.16,0,0,0-97.56,35.82Z"/><path class="cls-2" d="M239.73,533.81l-40.11,14.73,32.88,89.54a8.85,8.85,0,0,1-16.57,6.08l-32.87-89.54-40.89,15,36.39,99.11a53.15,53.15,0,0,0,97.56-35.82Z"/><path class="cls-2" d="M542.55,575.44,538.36,564l-40.88,15,4.12,11.21"/><path class="cls-2" d="M511,754.6l-40.89,15L437.25,680.2c-1-4.66-5.59-7-8.72-5.9s-5.33,5.93-3,10.23q16,44.85,32,89.69s-36.32,13.26-36.88,13.54-32.82-89.41-32.82-89.41c-1.16-4.83-6-7-9.16-5.74s-4.87,5.9-2.68,10.09q16.89,44.52,33.8,89L368.25,807,327.8,696.83c.11-19.07,11.63-35.8,28.39-41.74,20.5-7.26,38.3,5.33,39.86,6.47.4-1.73,5.78-23.14,26.28-30.79,16.56-6.19,36-.8,48.19,13.65Z"/><path class="cls-2" d="M527.54,748.52l40.11-14.73-32.87-89.54a8.84,8.84,0,0,1,16.56-6.08l32.88,89.54,40.88-15-36.39-99.12a53.16,53.16,0,0,0-97.56,35.82Z"/><path class="cls-2" d="M552.8,693.46l-40.11,14.73,32.88,89.54A8.84,8.84,0,0,1,529,803.81l-32.88-89.54-40.89,15,36.39,99.11a53.16,53.16,0,0,0,97.57-35.82Z"/><path class="cls-2" d="M639.73,258.14l-4.19-11.41-40.89,15L598.77,273"/><path class="cls-2" d="M608.15,437.3l-40.89,15L534.43,362.9c-1-4.67-5.6-7-8.72-5.9s-5.34,5.93-3.05,10.23q16,44.83,32.05,89.69s-36.32,13.26-36.88,13.54S485,381.05,485,381.05c-1.16-4.83-6-7-9.15-5.74s-4.87,5.9-2.69,10.09q16.9,44.52,33.8,89.05L465.43,489.7,425,379.52c.11-19.06,11.63-35.79,28.4-41.73,20.49-7.26,38.3,5.33,39.86,6.47.4-1.74,5.77-23.14,26.28-30.79,16.56-6.19,36-.8,48.18,13.65Z"/><path class="cls-2" d="M624.72,431.22l40.11-14.73L632,327a8.85,8.85,0,0,1,16.57-6.08l32.87,89.54,40.89-15-36.39-99.12a53.16,53.16,0,0,0-97.56,35.82Z"/><path class="cls-2" d="M650,376.16l-40.11,14.73,32.87,89.53a8.84,8.84,0,0,1-16.56,6.09L593.31,397l-40.89,15,36.39,99.11a53.15,53.15,0,0,0,97.56-35.82Z"/><path class="cls-2" d="M566.4,45,525.51,60,492.69-29.37c-1-4.67-5.6-7-8.73-5.9s-5.33,5.93-3,10.23q16,44.85,32.05,89.69s-36.32,13.26-36.87,13.54-32.83-89.41-32.83-89.41c-1.16-4.83-6-7-9.16-5.74s-4.87,5.9-2.68,10.09q16.89,44.52,33.8,89.05L423.68,97.43,383.23-12.75c.11-19.06,11.63-35.79,28.4-41.73,20.49-7.26,38.29,5.33,39.85,6.47.41-1.73,5.78-23.14,26.28-30.79,16.56-6.19,36-.8,48.19,13.65Z"/><path class="cls-2" d="M583,39l40.12-14.73L590.21-65.32a9,9,0,0,1,5-10.56,9,9,0,0,1,11.6,4.48l32.88,89.54,40.89-15L644.14-96a53.34,53.34,0,0,0-63.37-21.43,53.35,53.35,0,0,0-34.19,57.25Z"/><path class="cls-2" d="M608.24-16.11,568.12-1.38,601,88.16a8.84,8.84,0,0,1-16.56,6.08L551.56,4.7l-40.89,15,36.4,99.11A53.15,53.15,0,0,0,644.63,83Z"/><path class="cls-2" d="M879.47,204.68l-40.88,15-32.83-89.41c-1-4.67-5.6-7-8.73-5.9s-5.33,5.93-3,10.23q16,44.83,32,89.69s-36.31,13.26-36.87,13.54-32.83-89.41-32.83-89.41c-1.16-4.83-6-7-9.16-5.74s-4.87,5.9-2.68,10.09q16.9,44.52,33.8,89.05l-41.54,15.25L696.3,146.9c.11-19.06,11.63-35.79,28.4-41.73,20.49-7.26,38.3,5.33,39.85,6.47.41-1.74,5.78-23.14,26.29-30.8,16.56-6.18,36-.79,48.18,13.66Z"/><path class="cls-2" d="M174.05,25.51l-4.19-11.4L129,29.13l4.12,11.21"/><path class="cls-2" d="M142.47,204.68l-40.89,15L68.75,130.28c-1-4.67-5.6-7-8.72-5.9s-5.34,5.93-3.05,10.23Q73,179.45,89,224.3s-36.32,13.26-36.88,13.54-32.83-89.41-32.83-89.41c-1.16-4.83-6-7-9.15-5.74s-4.87,5.9-2.69,10.09q16.91,44.52,33.8,89.05L-.25,257.08-40.71,146.9c.11-19.06,11.63-35.79,28.4-41.73,20.49-7.26,38.3,5.33,39.86,6.47.4-1.74,5.77-23.14,26.28-30.8,16.56-6.18,36-.79,48.18,13.66Z"/><path class="cls-2" d="M159,198.6l40.11-14.73L166.27,94.33a8.85,8.85,0,0,1,16.57-6.08l32.87,89.54,40.89-15L220.21,63.66a53.16,53.16,0,0,0-97.56,35.82Z"/><path class="cls-2" d="M184.3,143.54l-40.11,14.72,32.87,89.54a8.84,8.84,0,0,1-16.56,6.09l-32.87-89.54-40.89,15,36.39,99.11a53.15,53.15,0,0,0,97.56-35.82Z"/></pattern></defs><g id="Layer_2" data-name="Layer 2"><g id="tipografia"><rect class="cls-3" width="880.65" height="424.47"/></g></g></svg>