<svg xmlns="http://www.w3.org/2000/svg" xmlns:xlink="http://www.w3.org/1999/xlink" viewBox="0 0 880.65 124.03"><defs><style>.cls-1{fill:none;}.cls-2{fill:#ee5234;}.cls-3{fill:url(#bueno_naranja_2);}</style><pattern id="bueno_naranja_2" data-name="bueno naranja 2" width="737.01" height="1099.84" patternTransform="matrix(0.22, 0, 0, -0.22, 268.91, -21.13)" patternUnits="userSpaceOnUse" viewBox="0 0 737.01 1099.84"><rect class="cls-1" width="737.01" height="1099.84"/><rect class="cls-1" width="737.01" height="1099.84"/><path class="cls-2" d="M598,134.13l-4.18,11.4-40.89-15L557,119.3"/><path class="cls-2" d="M566.4-45,525.51-60,492.69,29.38c-1,4.67-5.6,7-8.73,5.9s-5.33-5.92-3-10.22Q497-19.79,513-64.63c16-44.84-36.32-13.27-36.87-13.54s-32.83,89.41-32.83,89.41c-1.16,4.83-6,7-9.16,5.74s-4.87-5.91-2.68-10.09q16.89-44.53,33.8-89L423.73-97.36l-40.5,110.1c.11,19.07,11.63,35.8,28.4,41.74,20.49,7.25,38.29-5.33,39.85-6.47.41,1.73,5.78,23.13,26.28,30.79,16.56,6.18,36,.79,48.19-13.66Z"/><path class="cls-2" d="M583-38.95l40.12,14.73L590.24,65.32A8.84,8.84,0,0,0,606.8,71.4l32.85-89.56,40.89,15L644.14,96a53.16,53.16,0,0,1-97.56-35.82Z"/><path class="cls-2" d="M608.24,16.11,568.12,1.38,601-88.16a8.84,8.84,0,0,0-6-11,8.84,8.84,0,0,0-10.57,4.89L551.56-4.7l-40.89-15,36.4-99.12a53.16,53.16,0,0,1,73.35-16.48A53.17,53.17,0,0,1,644.63-83Z"/><path class="cls-2" d="M271.22,291.78,267,303.18l-40.89-15L230.23,277"/><path class="cls-2" d="M239.64,112.62l-40.89-15L165.93,187c-1,4.66-5.6,7-8.73,5.9s-5.33-5.93-3-10.23q16-44.85,32-89.69c16-44.84-36.32-13.26-36.87-13.54s-32.83,89.37-32.83,89.37c-1.16,4.83-6,7-9.16,5.74s-4.87-5.9-2.68-10.09l33.8-89L96.92,60.24,56.47,170.39c.11,19.07,11.63,35.8,28.4,41.74,20.49,7.26,38.3-5.33,39.85-6.47.41,1.73,5.78,23.14,26.29,30.79,16.56,6.19,36,.8,48.18-13.65Z"/><path class="cls-2" d="M256.21,118.7l40.12,14.73L263.45,223A8.84,8.84,0,0,0,280,229.05l32.88-89.54,40.89,15-36.38,99.13a53.16,53.16,0,0,1-97.57-35.8Z"/><path class="cls-2" d="M281.48,173.76,241.37,159l32.87-89.54a8.84,8.84,0,0,0-16.56-6.08L224.8,153l-40.88-15,36.39-99.11a53.15,53.15,0,0,1,97.56,35.82Z"/><path class="cls-2" d="M229.48,684.05l-4.19,11.4-40.89-15,4.12-11.22"/><path class="cls-2" d="M197.9,504.84l-40.9-15-32.83,89.41c-1,4.66-5.6,7-8.72,5.9s-5.33-5.93-3-10.23q16-44.85,32.05-89.69c16.05-44.84-36.32-13.26-36.88-13.54s-32.87,89.45-32.87,89.45c-1.15,4.83-6,7-9.15,5.74s-4.87-5.9-2.69-10.09q16.91-44.52,33.8-89L55.18,452.49,14.72,562.66c.11,19.07,11.64,35.8,28.4,41.74,20.49,7.26,38.3-5.33,39.86-6.47.4,1.73,5.77,23.14,26.28,30.79,16.56,6.19,36,.8,48.18-13.66Z"/><path class="cls-2" d="M214.47,511l40.11,14.73-32.87,89.54a8.84,8.84,0,0,0,16.56,6.08l32.87-89.54,40.89,15L275.64,645.9a53.16,53.16,0,0,1-97.56-35.82Z"/><path class="cls-2" d="M239.73,566,199.62,551.3l32.88-89.54a8.85,8.85,0,0,0-16.57-6.08l-32.87,89.54-40.89-15,36.39-99.11a53.15,53.15,0,0,1,97.56,35.82Z"/><path class="cls-2" d="M542.55,524.4l-4.19,11.44-40.88-15,4.12-11.21"/><path class="cls-2" d="M511,345.24l-40.89-15-32.86,89.4c-1,4.66-5.59,7-8.72,5.9s-5.33-5.93-3-10.23q16-44.85,32-89.69c16-44.84-36.32-13.26-36.88-13.54s-32.82,89.41-32.82,89.41c-1.16,4.83-6,7-9.16,5.74s-4.87-5.9-2.68-10.09q16.89-44.52,33.8-89l-41.54-15.3L327.8,403c.11,19.07,11.63,35.8,28.39,41.74,20.5,7.26,38.3-5.33,39.86-6.47.4,1.73,5.78,23.14,26.28,30.79,16.56,6.19,36,.8,48.19-13.65Z"/><path class="cls-2" d="M527.54,351.32l40.11,14.73-32.87,89.54a8.84,8.84,0,0,0,16.56,6.08l32.88-89.54,40.88,15-36.39,99.12a53.16,53.16,0,0,1-97.56-35.82Z"/><path class="cls-2" d="M552.8,406.38l-40.11-14.73,32.88-89.54A8.84,8.84,0,0,0,529,296l-32.88,89.54-40.89-15,36.39-99.11a53.16,53.16,0,0,1,97.57,35.82Z"/><path class="cls-2" d="M639.73,841.7l-4.19,11.41-40.89-15,4.12-11.27"/><path class="cls-2" d="M608.15,662.54l-40.89-15-32.83,89.4c-1,4.67-5.6,7-8.72,5.9s-5.34-5.93-3.05-10.23q16-44.83,32.05-89.69c16-44.86-36.32-13.26-36.88-13.54S485,718.79,485,718.79c-1.16,4.83-6,7-9.15,5.74s-4.87-5.9-2.69-10.09q16.9-44.52,33.8-89.05l-41.53-15.25L425,720.32c.11,19.06,11.63,35.79,28.4,41.73,20.49,7.26,38.3-5.33,39.86-6.47.4,1.74,5.77,23.14,26.28,30.79,16.56,6.19,36,.8,48.18-13.65Z"/><path class="cls-2" d="M624.72,668.62l40.11,14.73L632,772.84a8.85,8.85,0,0,0,16.57,6.08l32.87-89.54,40.89,15L685.94,803.5a53.16,53.16,0,0,1-97.56-35.82Z"/><path class="cls-2" d="M650,723.68,609.89,709l32.87-89.53a8.84,8.84,0,0,0-16.56-6.09l-32.89,89.51-40.89-15,36.39-99.11a53.15,53.15,0,0,1,97.56,35.82Z"/><path class="cls-2" d="M566.4,1054.84l-40.89-15-32.82,89.37c-1,4.67-5.6,7-8.73,5.9s-5.33-5.93-3-10.23Q497,1080,513,1035.19c16-44.84-36.32-13.26-36.87-13.54s-32.83,89.41-32.83,89.41c-1.16,4.83-6,7-9.16,5.74s-4.87-5.9-2.68-10.09q16.89-44.52,33.8-89.05l-41.59-15.25-40.45,110.18c.11,19.06,11.63,35.79,28.4,41.73,20.49,7.26,38.29-5.33,39.85-6.47.41,1.73,5.78,23.14,26.28,30.79,16.56,6.19,36,.8,48.19-13.65Z"/><path class="cls-2" d="M583,1060.84l40.12,14.73-32.91,89.59a8.86,8.86,0,0,0,16.6,6.08l32.88-89.54,40.89,15-36.44,99.14A53.16,53.16,0,0,1,546.58,1160Z"/><path class="cls-2" d="M608.24,1116l-40.12-14.73L601,1011.68a8.84,8.84,0,0,0-16.56-6.08l-32.88,89.54-40.89-15L547.07,981a53.15,53.15,0,0,1,97.56,35.81Z"/><path class="cls-2" d="M879.47,895.16l-40.88-15-32.83,89.41c-1,4.67-5.6,7-8.73,5.9s-5.33-5.93-3-10.23q16-44.84,32-89.69c16-44.86-36.31-13.26-36.87-13.54s-32.83,89.41-32.83,89.41c-1.16,4.83-6,7-9.16,5.74s-4.87-5.9-2.68-10.09q16.9-44.52,33.8-89.05l-41.54-15.25L696.3,952.94c.11,19.06,11.63,35.79,28.4,41.73,20.49,7.26,38.3-5.33,39.85-6.47.41,1.74,5.78,23.14,26.29,30.8,16.56,6.18,36,.79,48.18-13.66Z"/><path class="cls-2" d="M174.05,1074.33l-4.19,11.4-40.86-15,4.12-11.21"/><path class="cls-2" d="M142.47,895.16l-40.89-15-32.83,89.4c-1,4.67-5.6,7-8.72,5.9s-5.34-5.93-3.05-10.23q16-44.84,32-89.69c16-44.85-36.32-13.26-36.88-13.54s-32.83,89.41-32.83,89.41c-1.16,4.83-6,7-9.15,5.74s-4.87-5.9-2.69-10.09q16.91-44.52,33.8-89L-.25,842.76-40.71,952.94c.11,19.06,11.63,35.79,28.4,41.73,20.49,7.26,38.3-5.33,39.86-6.47.4,1.74,5.77,23.14,26.28,30.8,16.56,6.18,36,.79,48.18-13.66Z"/><path class="cls-2" d="M159,901.24,199.11,916l-32.84,89.54a8.85,8.85,0,0,0,16.57,6.08l32.87-89.54,40.89,15-36.39,99.13a53.16,53.16,0,0,1-97.56-35.82Z"/><path class="cls-2" d="M184.3,956.3l-40.11-14.72L177.06,852A8.84,8.84,0,0,0,160.5,846l-32.87,89.54-40.89-15,36.39-99.11a53.15,53.15,0,0,1,97.56,35.82Z"/></pattern></defs><g id="Layer_2" data-name="Layer 2"><g id="Patron"><rect class="cls-3" width="880.65" height="124.03"/></g></g></svg>